<?xml version="1.0" standalone="no"?>
<!DOCTYPE svg PUBLIC "-//W3C//DTD SVG 20010904//EN"
 "http://www.w3.org/TR/2001/REC-SVG-20010904/DTD/svg10.dtd">
<svg version="1.0" xmlns="http://www.w3.org/2000/svg"
 width="564.000000pt" height="564.000000pt" viewBox="0 0 564.000000 564.000000"
 preserveAspectRatio="xMidYMid meet">
<metadata>
Created by potrace 1.11, written by Peter Selinger 2001-2013
</metadata>
<g transform="translate(0.000000,564.000000) scale(0.100000,-0.100000)"
fill="#000000" stroke="none">
<path d="M3120 5519 c-25 -5 -51 -7 -59 -4 -20 8 -175 -52 -230 -88 -47 -31
-81 -63 -140 -132 -18 -22 -78 -86 -132 -143 -55 -57 -99 -109 -99 -116 0 -7
-8 -24 -18 -37 -21 -27 -52 -84 -78 -144 -10 -22 -34 -61 -54 -87 -31 -41 -75
-106 -105 -156 -5 -9 -19 -30 -30 -47 -11 -16 -25 -39 -31 -50 -49 -90 -108
-175 -126 -183 -5 -2 -8 -10 -8 -17 0 -7 -4 -15 -9 -17 -13 -5 -71 -118 -71
-139 0 -25 -48 -79 -70 -79 -29 0 -71 20 -117 57 -23 18 -45 33 -49 33 -4 0
-39 29 -79 65 -40 35 -103 81 -141 101 -38 20 -78 45 -90 55 -34 32 -170 63
-227 52 -16 -3 -68 -46 -134 -110 -58 -57 -119 -111 -134 -119 -15 -7 -37 -28
-50 -46 -29 -42 -91 -108 -101 -108 -12 0 -58 -47 -58 -58 0 -5 -22 -29 -48
-54 -93 -88 -182 -213 -182 -255 0 -40 92 -173 120 -173 4 0 24 -21 44 -47 20
-27 52 -67 71 -91 55 -68 54 -69 -89 -232 -12 -14 -66 -65 -121 -115 -54 -49
-105 -99 -114 -110 -9 -11 -60 -65 -115 -120 -125 -127 -153 -181 -162 -312
-7 -87 -5 -95 21 -150 18 -38 57 -88 114 -146 106 -108 149 -131 246 -130 57
1 77 10 156 71 31 23 59 42 64 42 8 0 272 266 368 373 134 147 166 177 191
177 17 0 43 -23 98 -87 41 -49 77 -93 79 -99 7 -19 104 -147 152 -201 38 -43
47 -60 47 -91 0 -84 67 -333 116 -432 28 -58 93 -137 132 -162 20 -13 52 -33
72 -45 102 -66 134 -74 269 -72 152 3 167 -3 267 -99 69 -67 128 -111 188
-142 42 -22 86 -65 86 -85 0 -10 -19 -36 -43 -59 -56 -55 -207 -226 -207 -236
0 -4 -8 -10 -18 -12 -10 -3 -33 -30 -50 -61 -17 -30 -49 -68 -70 -83 -21 -15
-46 -39 -55 -54 -9 -14 -22 -34 -29 -45 -7 -11 -15 -22 -18 -25 -13 -12 -58
-87 -63 -105 -4 -11 -9 -44 -13 -73 -5 -47 -1 -60 32 -127 65 -129 254 -285
347 -285 24 0 54 14 104 50 39 28 74 50 78 50 25 0 330 303 351 349 19 40 186
207 222 222 46 18 67 9 152 -68 47 -42 93 -87 102 -99 28 -35 103 -74 142 -74
29 0 42 8 78 47 24 26 124 129 224 228 280 279 354 381 354 489 0 58 -29 167
-58 223 -11 21 -37 74 -57 118 -21 44 -47 91 -59 105 -43 48 -86 127 -86 157
0 37 18 53 95 89 33 15 79 41 101 58 23 17 57 40 76 50 18 11 67 40 108 64 41
24 89 52 105 62 64 36 146 92 178 119 17 15 77 55 132 89 55 34 105 65 110 69
6 5 26 17 45 27 19 10 58 35 85 55 28 20 75 53 105 72 30 20 66 44 80 53 14 9
52 34 84 55 43 29 66 52 84 88 13 26 38 75 56 108 30 59 31 62 30 200 -1 154
-22 293 -54 360 -11 23 -29 76 -40 118 -21 79 -69 212 -94 257 -7 14 -55 106
-106 205 -51 99 -112 207 -136 240 -24 33 -65 89 -91 125 -61 84 -103 131
-231 263 -131 134 -156 155 -239 203 -36 22 -105 74 -152 117 -47 42 -90 77
-95 77 -5 0 -28 16 -52 35 -23 19 -45 35 -49 35 -25 0 -103 47 -180 108 -5 4
-28 16 -50 26 -22 11 -56 30 -75 43 -19 12 -43 23 -53 23 -20 0 -109 27 -139
41 -10 5 -24 9 -31 9 -7 0 -37 11 -65 25 -29 14 -61 25 -73 25 -11 0 -29 4
-39 10 -10 5 -36 13 -57 16 -21 3 -46 10 -57 16 -20 11 -219 49 -245 47 -9 -1
-36 -5 -61 -10z"/>
</g>
</svg>
